<svg width="113" height="112" viewBox="0 0 113 112" fill="none" xmlns="http://www.w3.org/2000/svg">
<g filter="url(#filter0_dd_955_4001)">
<rect x="8.28564" y="8" width="96" height="96" rx="48" fill="url(#paint0_linear_955_4001)"/>
<path d="M69.9839 63.5816C69.9839 56.4318 65.6939 53.9804 57.1139 52.9591C50.9854 52.1418 49.7597 50.5077 49.7597 47.6474C49.7597 44.7871 51.8027 42.949 55.8882 42.949C59.5654 42.949 61.6084 44.1747 62.6297 47.239C62.8341 47.8518 63.447 48.2602 64.0598 48.2602H67.328C68.1453 48.2602 68.7582 47.6474 68.7582 46.8306V46.6261C67.9409 42.1317 64.2638 38.659 59.5654 38.2506V33.3477C59.5654 32.5304 58.9525 31.9176 57.9313 31.7131H54.867C54.0497 31.7131 53.4368 32.326 53.2324 33.3477V38.0461C47.1038 38.8634 43.2227 42.949 43.2227 48.0563C43.2227 54.7977 47.3083 57.4531 55.8882 58.4748C61.6084 59.4961 63.447 60.7218 63.447 63.9905C63.447 67.2593 60.5866 69.5062 56.7055 69.5062C51.3938 69.5062 49.5552 67.2588 48.9424 64.1945C48.7384 63.3777 48.1256 62.9688 47.5127 62.9688H44.0395C43.2227 62.9688 42.6099 63.5816 42.6099 64.3989V64.6034C43.4267 69.7102 46.6954 73.3873 53.4368 74.4091V79.3119C53.4368 80.1287 54.0497 80.7416 55.0709 80.946H58.1352C58.9525 80.946 59.5654 80.3332 59.7698 79.3119V74.4091C65.8984 73.3873 69.9839 69.0973 69.9839 63.5816Z" fill="white"/>
<path fill-rule="evenodd" clip-rule="evenodd" d="M27.9007 45.809C21.9761 61.5393 30.1477 79.3121 46.0819 85.0318C46.6948 85.4407 47.3076 86.2575 47.3076 86.8703V89.7307C47.3076 90.1391 47.3076 90.3435 47.1032 90.5475C46.8992 91.3648 46.0819 91.7732 45.2646 91.3648C33.8248 87.6876 25.0404 78.9032 21.3633 67.4634C15.2347 48.0565 25.8577 27.4233 45.2646 21.2948C45.4691 21.0908 45.8775 21.0908 46.0819 21.0908C46.8992 21.2948 47.3076 21.9076 47.3076 22.7249V25.5848C47.3076 26.6065 46.8992 27.2194 46.0819 27.6278C37.7064 30.6921 30.965 37.229 27.9007 45.809ZM65.8924 22.1118C66.0964 21.2945 66.9137 20.8861 67.731 21.2945C78.9664 24.9716 87.9552 33.756 91.6324 45.4003C97.7609 64.8072 87.1379 85.4404 67.731 91.5689C67.5266 91.7729 67.1181 91.7729 66.9137 91.7729C66.0964 91.5689 65.688 90.9561 65.688 90.1388V87.2789C65.688 86.2572 66.0964 85.6443 66.9137 85.2359C75.2892 82.1716 82.0306 75.6347 85.0949 67.0547C91.0195 51.3244 82.8479 33.5516 66.9137 27.8319C66.3008 27.423 65.688 26.6062 65.688 25.7889V22.9291C65.688 22.5202 65.688 22.3162 65.8924 22.1118Z" fill="white"/>
</g>
<defs>
<filter id="filter0_dd_955_4001" x="0.285645" y="0" width="112" height="112" filterUnits="userSpaceOnUse" color-interpolation-filters="sRGB">
<feFlood flood-opacity="0" result="BackgroundImageFix"/>
<feColorMatrix in="SourceAlpha" type="matrix" values="0 0 0 0 0 0 0 0 0 0 0 0 0 0 0 0 0 0 127 0" result="hardAlpha"/>
<feOffset/>
<feGaussianBlur stdDeviation="4"/>
<feComposite in2="hardAlpha" operator="out"/>
<feColorMatrix type="matrix" values="0 0 0 0 0.715625 0 0 0 0 0.728516 0 0 0 0 0.75 0 0 0 0.04 0"/>
<feBlend mode="normal" in2="BackgroundImageFix" result="effect1_dropShadow_955_4001"/>
<feColorMatrix in="SourceAlpha" type="matrix" values="0 0 0 0 0 0 0 0 0 0 0 0 0 0 0 0 0 0 127 0" result="hardAlpha"/>
<feOffset dy="2"/>
<feGaussianBlur stdDeviation="1.5"/>
<feComposite in2="hardAlpha" operator="out"/>
<feColorMatrix type="matrix" values="0 0 0 0 0 0 0 0 0 0 0 0 0 0 0 0 0 0 0.02 0"/>
<feBlend mode="normal" in2="effect1_dropShadow_955_4001" result="effect2_dropShadow_955_4001"/>
<feBlend mode="normal" in="SourceGraphic" in2="effect2_dropShadow_955_4001" result="shape"/>
</filter>
<linearGradient id="paint0_linear_955_4001" x1="61.522" y1="47.2727" x2="-30.1144" y2="183.418" gradientUnits="userSpaceOnUse">
<stop stop-color="#2775CA"/>
<stop offset="1" stop-color="#00BBF9"/>
</linearGradient>
</defs>
</svg>
